PathFileType	4	(X/Y/Z)	./resultDataOpenSim/trcMotMarkerGrf/sub10/qtm-04-06.trc
DataRate	CameraRate	NumFrames	NumMarkers	Units	OrigDataRate	OrigDataStartFrame	OrigNumFrames
250.000000	250.000000	11	24	m	250.000000	435	497
Frame#	Time	L.Toe.Tip			R.Toe.Tip			L.Ankle.Lat			R.Ankle.Lat			L.Ankle.Med			R.Ankle.Med			L.Heel			R.Heel			L.Knee.Lat			R.Knee.Lat			L.Knee.Med			R.Knee.Med			L.Thigh.Upper			R.Thigh.Upper			L.ASIS			R.ASIS			V.Sacral			L.Acromium			R.Acromium			C7			L.Elbow			R.Elbow			L.Wrist.Lat			R.Wrist.Lat
		X1	Y1	Z1	X2	Y2	Z2	X3	Y3	Z3	X4	Y4	Z4	X5	Y5	Z5	X6	Y6	Z6	X7	Y7	Z7	X8	Y8	Z8	X9	Y9	Z9	X10	Y10	Z10	X11	Y11	Z11	X12	Y12	Z12	X13	Y13	Z13	X14	Y14	Z14	X15	Y15	Z15	X16	Y16	Z16	X17	Y17	Z17	X18	Y18	Z18	X19	Y19	Z19	X20	Y20	Z20	X21	Y21	Z21	X22	Y22	Z22	X23	Y23	Z23	X24	Y24	Z24

435	1.736	1.5495298	0.12335323	-0.056719765	0.79891531	0.03784389	0.09139535	1.4205867	0.087526687	-0.090136739	0.66705794	0.088791602	0.11814452	1.4194111	0.11285578	-0.011240157	0.69922105	0.10605793	0.035361878	1.3760325	0.033647801	-0.044989944	0.61326716	0.079284585	0.069043565	1.26835	0.45169324	-0.11462175	0.87989629	0.43124313	0.1572182	1.2858892	0.4275515	0.0041625601	0.91457292	0.42463138	0.032913213	1.1208022	0.80375545	-0.16354411	0.97268497	0.83119588	0.19978515	1.149822	0.91471709	-0.080488062	1.073148	0.91474528	0.15858985	0.92005833	0.91225408	-0.032573286	1.043062	1.38364	-0.11999134	1.028624	1.3728269	0.20321783	0.95432225	1.4050939	0.033323209	0.86735362	1.1016386	-0.20172532	1.0955896	1.023257	0.27461107	0.89402973	0.87100694	-0.27131522	1.3419942	0.98136523	0.26213233
436	1.74	1.5529904	0.12039205	-0.056557638	0.79921681	0.037853875	0.091453384	1.4239368	0.085875606	-0.089867295	0.66830713	0.090775109	0.11856107	1.423031	0.11103423	-0.010891146	0.70056208	0.10762497	0.035766718	1.378873	0.032233833	-0.04479164	0.61433144	0.082052796	0.069625402	1.2758439	0.45178494	-0.11448691	0.88423113	0.43093267	0.15707027	1.2933912	0.42787487	0.0043531119	0.91938683	0.42393843	0.033031522	1.1269547	0.80383155	-0.16380294	0.97785727	0.83062071	0.19914858	1.15625	0.91418574	-0.080417818	1.0787938	0.91397206	0.15857009	0.92599868	0.9119145	-0.033271072	1.0488479	1.3830257	-0.12059307	1.0346808	1.3721694	0.20262455	0.96020915	1.4044895	0.032768732	0.87274558	1.1009903	-0.20159771	1.1013353	1.0222452	0.27269579	0.89948351	0.87028828	-0.27096507	1.3476262	0.98002145	0.26055877
437	1.744	1.5562997	0.11730964	-0.056566109	0.79953738	0.037862812	0.091521156	1.4270093	0.084177992	-0.089608189	0.66964465	0.092847499	0.11895131	1.4263409	0.10919161	-0.010539354	0.70201522	0.10925791	0.036154823	1.3814055	0.03078635	-0.044596889	0.61553809	0.084939711	0.070119647	1.2832469	0.45182639	-0.11439736	0.8886494	0.43068339	0.15697359	1.3008158	0.42819279	0.0045161853	0.92430212	0.42327365	0.033145869	1.1331032	0.80395258	-0.16405471	0.98308965	0.83006403	0.19850446	1.1627448	0.91373372	-0.080348781	1.0845085	0.91321214	0.15856571	0.93213594	0.91146716	-0.03425418	1.0546914	1.382451	-0.12120629	1.0407493	1.3715653	0.20200746	0.966137	1.4039213	0.032188956	0.87820622	1.1003674	-0.20146142	1.1070444	1.0212671	0.27072406	0.90506133	0.86959536	-0.27060214	1.3531969	0.97859807	0.25900138
438	1.748	1.5595668	0.11409242	-0.056744272	0.799892	0.037859215	0.091601566	1.4298555	0.08246825	-0.089397497	0.67108556	0.094988936	0.11930863	1.4293769	0.1073344	-0.010187372	0.70359096	0.11095303	0.036521512	1.383656	0.029314397	-0.044377176	0.61691193	0.087931168	0.070476085	1.2905394	0.45181146	-0.11434576	0.89313775	0.43050391	0.15694044	1.308175	0.42850901	0.0046315389	0.92935372	0.42265749	0.033269268	1.1392744	0.80409439	-0.16429829	0.98839591	0.82953349	0.19786288	1.1693029	0.9133616	-0.080291955	1.0903085	0.91246507	0.15857201	0.93875597	0.91092166	-0.035584527	1.0605926	1.381913	-0.12183445	1.046817	1.3710168	0.20136191	0.97210324	1.4033906	0.031594463	0.88373809	1.0997568	-0.20133821	1.1127209	1.0203308	0.2686999	0.91075762	0.86892534	-0.27022385	1.3587033	0.97710284	0.25746302
439	1.752	1.5627627	0.11077376	-0.057060349	0.80027782	0.037830756	0.091698192	1.4325109	0.080741785	-0.089247454	0.67264498	0.097187122	0.11963202	1.4321797	0.10546367	-0.0098317128	0.70529552	0.11271038	0.03685958	1.3856608	0.027820551	-0.044111837	0.61843719	0.091021786	0.070718069	1.2977157	0.45173463	-0.11432476	0.89770676	0.43037687	0.15694266	1.3154806	0.42882077	0.004687029	0.93456989	0.42210014	0.033419011	1.1454945	0.80423952	-0.16453029	0.99378876	0.82903646	0.19723084	1.1759119	0.91307868	-0.080260556	1.0961768	0.91173776	0.15859058	0.94629297	0.91019189	-0.03673753	1.0665466	1.3814159	-0.12248546	1.0528806	1.3705227	0.200686	0.97810737	1.4028983	0.030985768	0.88935116	1.0991583	-0.201227	1.118353	1.0194354	0.26661887	0.91657273	0.86827537	-0.26983158	1.3641451	0.9755417	0.25594506
440	1.756	1.5657069	0.10745	-0.057341468	0.80066948	0.037774953	0.091811827	1.434982	0.07895012	-0.089110899	0.67433161	0.09945627	0.11993032	1.4347681	0.10358573	-0.0094656522	0.70713209	0.11453717	0.037161722	1.3874508	0.02632774	-0.043800387	0.62009596	0.094214013	0.070891547	1.3047771	0.45158647	-0.11432965	0.90240292	0.43027875	0.15693683	1.3227329	0.42911982	0.0046814623	0.93995107	0.42159678	0.03359549	1.1517827	0.80437336	-0.16474907	0.99927582	0.82857683	0.19660901	1.1825539	0.91289859	-0.080261514	1.1020726	0.91104197	0.1586308	0.9548654	0.90925007	-0.036152393	1.072551	1.3809644	-0.12316515	1.0589686	1.3700688	0.19997269	0.98414741	1.4024445	0.030349086	0.89505179	1.0985809	-0.2011132	1.1239135	1.0185623	0.26447173	0.92251449	0.86764454	-0.26943248	1.3695239	0.97391161	0.25444791
441	1.76	1.5682547	0.1042076	-0.057401899	0.80104309	0.037702854	0.091931751	1.4372637	0.077051184	-0.088919216	0.67613621	0.10182737	0.12019879	1.4371503	0.10170589	-0.0090918596	0.70910981	0.1164388	0.03742913	1.389025	0.024915244	-0.043464738	0.62189401	0.097511107	0.071016339	1.3117245	0.45135384	-0.11435711	0.90726559	0.43020154	0.15689995	1.3299153	0.42939093	0.0046203149	0.94547629	0.42113272	0.033780109	1.1581485	0.80448514	-0.16495331	1.0048601	0.82815208	0.19599632	1.1892156	0.91282814	-0.080294347	1.1079768	0.91038809	0.15869272	0.96400187	0.90820793	-0.032098055	1.0786072	1.3805563	-0.12387467	1.0651574	1.3696195	0.19918843	0.99021784	1.4020249	0.029669376	0.9008353	1.0980234	-0.20099389	1.1293766	1.0176858	0.26225451	0.92858939	0.86703201	-0.26903409	1.374839	0.97220553	0.25297474
442	1.764	1.5704499	0.10104721	-0.057217162	0.80140643	0.037636252	0.092037498	1.4393684	0.075058666	-0.088647016	0.67802042	0.10432167	0.12039162	1.4393593	0.099819925	-0.008724272	0.71125302	0.11840528	0.037676134	1.3903552	0.02371226	-0.043138408	0.62384579	0.10091261	0.071090791	1.3185516	0.45102434	-0.11440123	0.91229608	0.43015428	0.1568393	1.3369939	0.4296048	0.0045112075	0.95112899	0.42068824	0.033953334	1.1645955	0.80457205	-0.16513958	1.0105408	0.82775269	0.19539326	1.1959036	0.91285495	-0.080356466	1.1139159	0.90978544	0.15875604	0.97266226	0.90733829	-0.025305702	1.0847121	1.3801856	-0.12461391	1.0715465	1.3691351	0.19828052	0.99631328	1.4016278	0.028945622	0.90669201	1.0974713	-0.20087856	1.1347504	1.0168073	0.25997425	0.9347927	0.86643634	-0.26863882	1.3800869	0.97042054	0.2515318
443	1.768	1.5724622	0.097879186	-0.05688356	0.801795	0.037600885	0.092114892	1.4413357	0.073041455	-0.088327297	0.67993236	0.1069332	0.12043736	1.4414593	0.097925838	-0.0083807489	0.7135851	0.12041726	0.03791578	1.3914388	0.02282477	-0.042846635	0.62595569	0.1044168	0.071112731	1.3252439	0.45059073	-0.1144538	0.91748083	0.43014671	0.15677252	1.3439298	0.42971674	0.0043660394	0.95691005	0.42024589	0.034110849	1.1711267	0.80463987	-0.165304	1.0163167	0.82736826	0.19479846	1.2026458	0.91294722	-0.08044305	1.1199439	0.90924683	0.15878649	0.97920806	0.90717957	-0.019885638	1.0908578	1.3798474	-0.125382	1.0781494	1.3686193	0.19724089	1.0024297	1.4012416	0.028187991	0.91261677	1.0969154	-0.20076982	1.1400902	1.0159708	0.25764692	0.94111317	0.86585894	-0.2682458	1.3852654	0.96856058	0.25012378
444	1.772	1.5744714	0.094536533	-0.056489562	0.8022379	0.037614213	0.092164845	1.443226	0.071103079	-0.088024251	0.68186572	0.10962888	0.12031232	1.4435396	0.096051737	-0.0080765852	0.71609612	0.12247026	0.038136427	1.3923451	0.022276397	-0.04259926	0.62821734	0.10802852	0.071081084	1.3317782	0.45005195	-0.11450877	0.92281795	0.43017792	0.156711	1.3507008	0.42968	0.0042034249	0.96282305	0.41979966	0.034259275	1.177749	0.80469961	-0.16544829	1.0221911	0.826992	0.19420497	1.2094666	0.91307662	-0.080542109	1.1261108	0.90878455	0.15874958	0.98238571	0.90818639	-0.019323803	1.0970409	1.3795393	-0.12617542	1.0848118	1.36814	0.19615197	1.0085612	1.4008652	0.027402546	0.91861362	1.0963666	-0.20065718	1.1454554	1.0152227	0.25528886	0.94754541	0.86530266	-0.2678562	1.3903761	0.96663455	0.24875061
445	1.776	1.5766428	0.090782721	-0.056075448	0.80274067	0.037674353	0.092191154	1.4451213	0.069371861	-0.087801251	0.68389355	0.11237158	0.120093	1.4457258	0.094281121	-0.0078200471	0.71876027	0.12457153	0.03831384	1.3931866	0.02207759	-0.042420755	0.63062066	0.11175891	0.070986884	1.3381195	0.44941288	-0.11456476	0.92831143	0.43023852	0.15665579	1.3573033	0.4294623	0.0040449496	0.96885669	0.41935231	0.034401627	1.1844752	0.8047646	-0.16558516	1.0281676	0.82661513	0.19359794	1.2163616	0.91324099	-0.080634468	1.1324297	0.90839381	0.15863127	0.98343877	0.90992035	-0.022581883	1.1032636	1.3792612	-0.12699085	1.0913358	1.3677689	0.19511819	1.014701	1.4005102	0.026584896	0.92469381	1.0958409	-0.20053411	1.1508613	1.014569	0.25290826	0.95409281	0.86476593	-0.26747568	1.3954237	0.9646518	0.2474102
